# xmcd CD database file generated by OrangeCD 6.0
#
# Track frame offsets:
#	183
#	49158
#	87408
#	99428
#	115233
#	129670
#	179133
#	200958
#	221133
#	267200
#	305183
#	317633
#
# Disc length: 4497 seconds
#
# Revision: 1
# Processed by: cddbd v1.5.2PL0 Copyright (c) Steve Scherf et al.
# Submitted via: OrangeCD 6.0
#
DISCID=c0118f0c
DTITLE=Stevie Ray Vaughan - Alone in the Ozone
DYEAR=1900
DGENRE=Blues
TTITLE0=Voodoo Chile (Slight Return)
TTITLE1=Lost Your Good Thing Now
TTITLE2=Honey Bee
TTITLE3=Mary Had a Little Lamb
TTITLE4=Lovestruck Baby
TTITLE5=Tin Pan Alley
TTITLE6=Cold Shot
TTITLE7=Couldn't Stand The Weather
TTITLE8=Texas Flood
TTITLE9=Lenny
TTITLE10=Stan's Swang
TTITLE11=Rude Mood
EXTD=
EXTT0=
EXTT1=
EXTT2=
EXTT3=
EXTT4=
EXTT5=
EXTT6=
EXTT7=
EXTT8=
EXTT9=
EXTT10=
EXTT11=
PLAYORDER=
